<svg width="173.60001" height="192.10001" xmlns="http://www.w3.org/2000/svg" viewbox="0 0 1000 549" version="1.2">
  <path id="svg_1" d="m151.2,14.6l3.4,1.4l7.5,4.8l1.5,1.3l1.2,1.8l0.9,3.4l1,2l1.5,1.4l1.6,1.3l1.5,1.6l1.3,2.7l
  -1.2,7.7l-8.2,28.4l-7.3,3.1l-9.1,2.5l-5,0.8l-1.1,0.7l-0.9,1.3l-0.4,2.7l-0.1,1.8l0.9,7.9l0.7,2.5l0.8,1.9l1.3,3l
  -0.2,1.5l-8.4,12.8l-0.8,2.3l-0.2,1.7l3.5,11l0.4,2.4l-0.6,1.7l-1.2,2l-3.1,3.7l-1.2,2.3l-0.7,1.8l-0.2,4l-0.3,1l
  -5.3,9.6l-0.8,2l-2.3,9.5l-2.1,0.8l-3.4,0.4l-12.4,-0.7l-2.6,-0.5l-0.8,-0.6l-3,-2.9l-5.4,-6.2l-2.5,-1.9l-2.1,
  -0.8l-3.1,-0.2l-2.4,0.4l-2.6,1.1l-2.2,1.6l-3,3.7l-6.6,10.4l-0.9,1.6l-27.9,-12.8l-29.6,-14.4l-8.8,-28.6l-0.2,
  -6.7l1,-6.9l2.2,-6.7l3.3,-6.1l4.9,-5.1l11.3,-6.1l5.1,-4.1l3.8,-6l2.7,-6.1l3.5,-6l6.1,-5.4l39.6,-27.9l8.8,
  -8.8l4.4,-2.9l18.3,-7l6,-0.4l7.5,2l10.7,8.3l6.1,2.5l6,-3.2l0.2,-2.4l-0.3,-0.7z"/>
</svg>