<svg width="231" height="135.29999" xmlns="http://www.w3.org/2000/svg" version="1.2" viewbox="0 0 1000 549">

 <g>
  <title>Layer 1</title>
  <path name="Cabañas" id="cabanas" d="m211.8,83l-2.5,2.3l2.5,5.3l-0.6,5l-2.9,4.3l-4.4,2.8l0.9,5.9l-3.9,5.9l-3.8,7.4l0.1,0.1l-6.7,4.5l-3.9,-1l-10.4,-1.3l-1.5,-0.5l-0.8,-0.7l-0.9,-2l-0.5,-2.3l-0.6,-1l-1.1,-0.6l-2.9,-0.7l-1,-0.5l-2.7,-1.6l-4.4,-1.6l-1,-0.5l-7.6,-5.6l-0.9,-0.5l-4.6,-0.8l-5.6,-0.3l-2.7,-0.5l-13.2,0.1l-2.9,-0.3l-2,-0.5l-5.9,-4.3l-1.4,0.1l-1.5,0.8l-2,2.8l-1.4,1.4l-1.4,0.9l-2.4,-0.2l-3,-0.7l-2.7,0.7l-12.8,5.7l-4,1.3l-2.8,0.5l-4.3,-1.5l-2.4,-0.5l-2.7,-0.1l-1.1,1.5l-0.8,1.3l-0.6,12.2l-14.2,-3.9l-3.7,-2.1l-0.4,-1.1l-2.7,-4.1l-4,-4.2l-1.7,-2.3l-0.9,-1.9l-0.6,-2.7l-0.5,-1.7l-2.1,-3.6l-0.5,-1.8l-0.3,-1.9l-1.5,-3.3l-2,-2.3l-3.3,-2.3l-2.6,-2.7l-8,-11.4l-2,-3.7l-1,-2.7l0.2,-1.3l0.8,-2.1l1.2,-1.7l0.9,-0.6l5.5,-3.2l1.5,-1.3l1.4,-1.5l1.7,-2.8l6.1,-9.7l12.1,-0.3l10.8,1l5.7,-1.4l6.2,-2.4l25.3,-8.4l4.9,-2.2l2.8,-2.2l3.1,-4.2l8.6,-4.1l19,-2.9l-0.1,0.7l2.5,-1l10.5,-1.6l10.5,0.7l31.2,10l18.2,1.4l4,1.7l3.7,3.6l-0.5,2.4l-0.5,0.5l-1.9,-0.2l2.6,5.6l-0.3,5l-1.4,5.2l-0.9,6.2l1.2,4.1l4.5,11.1l0.2,6.9l-3.6,6z"/>
 </g>
</svg>