<svg width="327" height="228.29999" xmlns="http://www.w3.org/2000/svg" viewbox="0 0 1000 549" version="1.2">

 <g>
  <title>Layer 1</title>
  <path name="Chalatenango" id="chalatenango" d="m308.9,180.7l-19,2.9l-8.6,4.1l-3.1,4.2l-2.8,2.2l-4.9,2.2l-25.3,8.4l-6.2,2.4l-5.7,1.4l-10.8,-1l-12.1,0.3l-6.8,-0.7l-6.4,-2.5l-7.4,0.6l-8.9,-4.2l-1.5,-1l-1.9,-1.7l-2.2,-3.2l-1.1,-2.4l-0.7,-1.9l-0.4,-2.2l0,-1.1l0.3,-1.8l-0.1,-0.8l-0.8,-1.2l-9,-10.8l-1.9,-3.3l-0.6,-0.8l-7,-5l-3,-2.7l-2.1,-1.1l-10.6,-3.8l-5.1,-2.7l-2.7,-0.1l-7.3,3.8l-11.4,5.2l-4.7,-1.1l-5.8,-4.7l-2.6,5.3l-5.7,0l-8.6,-3.8l-3.1,1.1l-5.4,3.9l-1.7,0.8l-2.9,-0.4l-4,-1.8l-1.3,-0.4l-6.7,-1l-7.5,-4.2l-4.2,-0.9l-4.1,3.1l-3.7,2l-4.9,1l-3.4,1.3l-1.3,2.9l-1.8,2.9l-4.9,1.3l-6.1,0l-6.2,-1.1l-4.6,-4.3l-1.2,-9.1l7.9,-27.3l7.7,0.5l2,-0.9l0.8,-0.8l1,-1.4l4.8,-8.8l1.6,-1.3l1,-0.4l2.2,-0.5l4.3,-0.3l1.3,-0.2l2.1,-0.7l1.8,-1.2l1.4,-1.4l8,-11.1l0.8,-2l0.2,-1.6l-0.4,-4.7l0,-8.6l15.4,-6.2l3.6,-4.1l1.6,-8.6l5.3,-15.4l-7.5,-4.8l-2,-2.6l-0.9,-0.8l-6.1,-3.2l-1.5,-1.2l-0.9,-0.9l-1.8,-3.1l-1.4,-3.2l-0.5,-0.8l-2.7,-3.1l-15.8,-14.7l16,2.5l12.8,6.1l21,4.6l10.4,7.4l19.1,5.7l3.9,-3.6l5.9,-11.5l3.3,-3.4l3.6,-1l2.4,0.5l2.1,1.9l2.3,3.2l2.1,3.9l0.9,4.2l-0.4,4.3l-1.6,4.2l4.7,4.1l14,1.7l6.6,3.3l2.7,5.2l1.6,13.1l1.9,3.8l10.4,8l3.8,4.6l3.7,6.3l1.6,5.3l0.6,5.5l1.3,4.5l3.7,2.7l4,-0.9l4.9,-2.9l5.7,-2.5l6.5,0.1l10.2,6.6l8.6,10.9l6.2,12.7l2.7,12l7.2,-1l18.1,1.3l4.9,-1.9l4.3,-2.6l3.6,-0.4l2.9,4.8l-0.3,7.2l-2.5,7.1l-0.3,5.9l6.5,4.3l8.8,1.2l2,0.7l2.9,2.6l2.1,2.8l0.9,3.6l-0.1,2.2z"/>
 </g>
</svg>