<svg width="153" height="208.29999" xmlns="http://www.w3.org/2000/svg" version="1.2" viewbox="0 0 1000 549">

 <g>
  <title>Layer 1</title>
  <path name="Cuscatlán" id="cuscatlan" d="m103.4,64.8l-6.1,9.7l-1.7,2.8l-1.4,1.5l-1.5,1.3l-5.5,3.2l-0.9,0.6l-1.2,1.7l-0.8,2.1l-0.2,1.3l1,2.7l2,3.7l8,11.4l2.6,2.7l3.3,2.3l2,2.3l1.5,3.3l0.3,1.9l0.5,1.8l2.1,3.6l0.5,1.7l0.6,2.7l0.9,1.9l1.7,2.3l4,4.2l2.7,4.1l0.4,1.1l3.7,2.1l14.2,3.9l-7.5,20.2l-1.4,5.9l-1,2l-0.9,1.4l-8,7.9l-2.9,1.7l-2.3,0.8l-5.1,0.7l-2.1,0.8l-0.6,0.8l-0.9,2l-0.7,0.8l-1.7,0.7l-3.2,0.3l-7.8,-2.5l-7.1,-3.8l-18.2,-6.7l-0.3,-12.8l-0.9,-2.1l-0.8,-2.3l-2,-2.5l-7.1,-13.7l-0.7,-2l0.7,-9.2l-0.3,-1.8l-0.8,-1.2l-1,-0.4l-1.6,-1.1l-1.7,-1.7l-5.2,-7.7l-0.8,-0.6l-2.3,-0.7l-2.6,-0.1l-2.9,-2.4l-3.8,-4.3l-10.9,-17.3l-1.2,-3.3l0.8,-0.7l2.9,-1.3l1.1,-0.8l0.8,-0.8l0.7,-1.6l-0.3,-1l-2.6,-3.2l-8.5,-14.1l-4,-8.1l-0.8,-3.2l-0.5,-3.7l0.3,-0.6l2.2,-1.9l1,-1.7l0.7,-2.2l0.3,-2.5l0.6,-2.4l0.3,-2.9l-0.3,-4.1l-1.3,-7l-0.2,-1.9l0.5,-1.4l1.9,-4l1.9,-5.1l0.2,-4.1l7.3,-3.8l2.7,0.1l5.1,2.7l10.6,3.8l2.1,1.1l3,2.7l7,5l0.6,0.8l1.9,3.3l9,10.8l0.8,1.2l0.1,0.8l-0.3,1.8l0,1.1l0.4,2.2l0.7,1.9l1.1,2.4l2.2,3.2l1.9,1.7l1.5,1l8.9,4.2l7.4,-0.6l6.4,2.5l6.8,0.7z"/>
 </g>
</svg>