<svg width="247" height="296.29999" xmlns="http://www.w3.org/2000/svg" version="1.2" viewbox="0 0 1000 549">

 <g>
  <title>Layer 1</title>
  <path name="La Libertad" id="la-libertad" d="m158.3,17.5l-0.5,14.3l-2.2,9.2l-0.1,2.3l0.3,1.5l2.5,1.9l1,1.5l1.1,2.2l2.1,4.9l1.2,2.2l1.2,1.6l1.7,1.1l1.9,0.9l3.4,1.1l1.2,0l3.8,-0.3l2.5,0.2l2.3,0.7l1.4,0.8l1.5,1.2l2.2,1.2l0.6,0.9l0.2,0.7l-1.1,2.8l-0.7,2.9l-0.4,0.3l-3,-0.1l-1.1,0.3l-0.8,0.7l-0.4,1.4l-2.1,23.7l-0.6,2.4l-0.4,1l-0.9,0.6l-2.1,0.8l-1.7,1.2l-1.3,1.6l-0.8,2l-0.5,2l-0.8,7.5l-0.8,3.2l-1.4,3.2l-0.7,3.9l-0.5,6.8l-0.7,2.9l-2.8,5.3l-1.8,5.3l0.1,1.7l0.7,0.9l2.4,0.4l2.1,2.7l-0.4,4.3l0.3,4l0.4,1.1l1.3,1.7l1.6,1.2l0.7,1l0.5,1.4l0.8,3.3l0.6,1.9l0.8,1.2l0.9,0.7l5.9,3.2l2.5,2l2.8,3.7l0.4,1.6l-0.2,1.4l-1.3,2.5l-1,2.3l0.1,1.3l0.9,1l3.1,1.5l0.5,1l-0.2,1l-1.5,1.5l-0.6,2.4l-0.3,4l0.8,17.5l-0.2,1.4l-2.6,6.7l-0.9,3.6l-0.2,2l0.3,1.6l6.6,10.7l2.3,5l0.6,0.9l0.9,0.5l2.5,0.1l2.4,-0.6l4.3,-1.4l2.4,-0.3l2.6,0.5l3,1.3l1.5,6.9l1.2,1.8l2.7,0.1l2.3,0.5l4.1,1.7l1.3,1.4l0.3,1.2l-1,1.8l-2,2.5l-1.2,1.7l-3.2,5.7l-1.1,2.5l-1.3,4l-19.7,-12.2l-28,-12.4l-30.3,-7.2l-14,0l-10.7,-2.5l-58.6,0.4l-25,-6.2l-8.9,-1.8l5.5,-12.7l2.2,-3.5l10.4,-9.2l1.8,-2.1l1.1,-1.7l0.6,-5.1l0.7,-3.6l1,-2.1l1,-1.3l1.6,-1.4l9,-9.1l2.1,-2.7l1.1,-2.1l0.1,-1.4l-0.6,-9.4l0.7,-4.9l1.2,-5l0.9,-2.3l0.9,-1.6l0.8,-0.8l1.7,-1l1,-0.2l2.8,-0.3l1.7,-0.7l1.6,-1.3l4.9,-6l2.2,-2.1l6.1,-3.6l2.6,-1.8l3,-2.7l1.1,-1.6l0.6,-1.6l-0.2,-1.2l-1,-1.9l-1.6,-1.3l-1,-0.5l-4.7,-1.5l1.9,-11.8l7.3,-19.8l0.7,-9.1l-0.3,-7.6l0.5,-11.4l0.5,-2.4l0.7,-0.8l0.9,-0.6l1,-0.2l2.1,0.4l1.1,-0.2l1.4,-0.9l3.3,-5.3l0.9,-0.4l4,-0.2l2.1,-1l0.9,-1.1l0.5,-1.3l0.6,-8.2l-0.1,-1.3l0.7,-6.2l4.5,-23.5l1.8,-2.9l1.3,-2.9l3.4,-1.3l4.9,-1l3.7,-2l4.1,-3.1l4.2,0.9l7.5,4.2l6.7,1l1.3,0.4l4,1.8z"/>
 </g>
</svg>