<svg width="168" height="196.29999" xmlns="http://www.w3.org/2000/svg" version="1.2" viewbox="0 0 1000 549">

 <g>
  <title>Layer 1</title>
  <path name="La Paz" id="la-paz" d="m113.3,13.1l3.1,8.4l0.1,7l-0.5,7.1l0.5,2.9l0.8,1.7l1.2,0.2l2.6,-0.2l9.9,-3.1l1.7,-0.1l1.9,0.3l3.2,1.2l1.1,1.4l10.2,21.8l0.4,2.5l0,2.7l-0.6,2.4l-3.1,8.7l-0.6,2l-2,11.4l-0.1,2l0.6,7.4l0.6,2.4l0.6,1.7l2.7,3l2.5,2l3.6,2.2l2.8,2.7l2.7,3.5l1,2.2l0.4,1.8l-0.2,1.3l-0.5,2.4l-0.9,2l-2.5,1.9l-1.2,1.7l-0.4,1.1l-0.2,2.6l1.9,17.3l-0.2,2.4l-0.5,1l-1.5,1.6l-0.8,0.6l-3.8,1.9l-3.1,1.2l-1.8,1l-1.6,1.3l-1.2,1.7l-0.9,2.1l-0.3,1.2l-1.1,12.8l-96.1,-44.9l-29.2,-18l1.3,-4l1.1,-2.5l3.2,-5.7l1.2,-1.7l2,-2.5l1,-1.8l-0.3,-1.2l-1.3,-1.4l-4.1,-1.7l-2.3,-0.5l-2.7,-0.1l-1.2,-1.8l-1.5,-6.9l0.9,-3.5l1.2,-0.8l3,-3.3l2.1,-4.6l3.5,-10.5l0.9,-4.6l0.3,-2.9l-0.8,-2.1l-3.2,-5.6l-1.2,-3.4l-0.8,-3.7l0.2,-2l0.6,-1.3l0.9,-0.5l1.1,-0.3l2.6,0.2l6.6,2.2l2.5,0.3l2.1,-1.7l12.4,-15.8l14.9,-14.1l18.2,6.7l7.1,3.8l7.8,2.5l3.2,-0.3l1.7,-0.7l0.7,-0.8l0.9,-2l0.6,-0.8l2.1,-0.8l5.1,-0.7l2.3,-0.8l2.9,-1.7z"/>
 </g>
</svg>