<svg width="183" height="336.29999" xmlns="http://www.w3.org/2000/svg" version="1.2" viewbox="0 0 1000 549">

 <g>
  <title>Layer 1</title>
  <path name="La Unión" id="la-union" d="m171.4,318.8l1.6,4.3l-3.5,1.9l-5.3,-1.9l-3.5,1.6l0,-4.6l-2.2,-4.6l0.9,-5.4l-0.4,-5.4l3,-2.1l5.7,1.9l3.5,7.8l0.2,6.5zm-24.8,-18.1l-2.7,2.7l-5.4,-4.9l-1.3,-6.7l2.4,-2.4l3.5,-0.3l3.2,1.9l2.7,6.2l-2.4,3.5zm-137.7,20.3l2.2,-33.2l0.6,-3.3l1.1,-4.2l0.8,0.4l3.4,2.5l3.6,2.2l4.3,1.5l1.3,0.3l1.4,0l1.9,-0.6l1,-1l5.4,-17.7l0.3,-2.6l-0.7,-2.4l-0.1,-1.8l5.3,-30.5l-0.2,-1l-0.8,-2.1l-3.9,-6.2l-0.9,-2.1l-1.2,-7.5l-0.2,-10.8l0.4,-2.8l0.6,-1.7l0.8,-0.6l1.8,-1l2.2,-1.8l1.6,-1.9l0.4,-1.4l0,-1.4l-1.6,-6.1l-0.2,-12.9l0.8,-5.3l2.7,-3.7l12.8,-13.7l3,-4.6l0.7,-8l9.5,-24.5l2.4,-11.4l1.3,-9.9l0.1,-8.1l-0.4,-2.6l-0.8,-2l-0.5,-1l-1.9,-2.4l-0.5,-0.9l-0.4,-2.5l1.7,-25.8l-0.8,-12l-1.8,-7l-1.3,-8.3l2.3,0.5l6.1,4l2.8,0.8l1.9,-1l5.3,-4.1l3.2,-1.1l4.1,0.3l8.1,1.6l4,-0.2l4,-2.9l3.4,-4.3l4.1,-3.5l6.2,-0.2l3.9,3l4,11.2l3.4,5.1l2.1,1.3l5.8,2.2l2.5,1.4l18.2,15.7l7.2,3l-3.7,6.1l-8.3,19.3l-2.1,7l2.7,7l-2.1,4.6l-4.1,3.9l-3.6,5.2l-1.5,7.5l0.4,15.8l-1,7.7l-9.9,24l-2.4,11.7l4.3,9.7l4.3,1.6l8.7,-2.9l6,2.3l3.2,3.7l2.1,5.1l0.7,5.7l-0.9,5.4l-7.1,8.1l-32.5,14.9l-3.5,-2l-2.1,-3.5l-3.1,-9.1l-11.6,20.2l-3,12l7.6,5.2l4.8,1.9l13.7,13.2l7.8,5.2l0.6,2.5l0,5.2l-3.3,9l-8.2,6.5l-30.7,15.5l-8.3,6.6l-1.4,6.8l9.5,6.6l-14.6,3.4l-56.8,-3.9l-10.4,-2.1z"/>
 </g>
</svg>