<svg width="162" height="202.29999" xmlns="http://www.w3.org/2000/svg" version="1.2" viewbox="0 0 1000 549">

 <g>
  <title>Layer 1</title>
  <path name="Morazán" id="morazan" d="m146.1,47.6l1.3,8.3l1.8,7l0.8,12l-1.7,25.8l0.4,2.5l0.5,0.9l1.9,2.4l0.5,1l0.8,2l0.4,2.6l-0.1,8.1l-1.3,9.9l-2.4,11.4l-9.5,24.5l-0.7,8l-3,4.6l-12.8,13.7l-8.8,-1.5l-4.3,0.3l-16.1,5l-3.1,0.3l-2,-0.3l-0.6,-0.7l-1.1,-2l-0.9,-1.1l-1.4,-1.3l-6.1,-3.7l-0.9,-0.6l-1.1,-1.8l-1.1,-7.6l-0.7,-2.3l-1.5,-2.8l-1.8,-2.3l-1.5,-1l-1.5,-0.5l-16,1.3l-2.3,0.5l-2.1,0.8l-3.3,2l-2.3,0.7l-0.7,-0.5l0,-0.8l0.5,-0.9l2.4,-3.3l0.4,-1l0.1,-1.1l-0.6,-1.1l-1,-0.9l-2.9,-1.9l-1.6,-1.6l-0.7,-2.2l-0.2,-1.2l-0.8,-1.7l-1.5,-2l-4,-2.9l-1.5,-1.5l-0.7,-2.6l-1.4,-2.1l-5.2,-4.7l-2.2,-2.5l-1.2,-1.9l-0.7,-10.7l0,-1.1l1.2,-1.7l13.5,-9.8l1.9,-1l3.2,-1.2l1.7,-1.3l0.7,-0.8l0.3,-1.2l0,-1.6l-0.7,-2.5l-1.1,-1.7l-1,-1l-15.5,-10.7l-2.4,-2.1l-1.5,-1.6l-0.6,-2.2l-0.2,-4.1l0.4,-2.4l0.5,-1.5l1.7,-2.4l1.6,-1.3l1.4,-1.6l0.8,-2l0.3,-1.2l-0.1,-2.5l-1.3,-3.6l-1.6,-3.2l-0.7,-1.8l-0.1,-1.4l-0.7,-3.4l-4.9,-11.5l-2.2,-3.1l1.6,-3l2.7,-3l5,-2.1l3.6,0.6l2.6,-0.6l2,-5.8l-0.7,-1.2l-3.7,-3.4l-0.9,-1.5l-0.4,-8.4l0.2,-1.5l4.1,-1.5l6.2,0.7l10.9,2.4l6.6,0.2l21.5,-2.6l10.8,0.6l4.8,4l6,15.7l6,7.2l7.6,7l6.7,8.1l3.4,10.5l18.8,-9.4l6.2,-1.7l0.9,0.2z"/>
 </g>
</svg>