<svg width="197" height="253.29999" xmlns="http://www.w3.org/2000/svg" version="1.2" viewbox="0 0 1000 549">

 <g>
  <title>Layer 1</title>
  <path name="San Vicente" id="san-vicente" d="m162.2,27l1.1,10l12.7,12.8l4.7,7.4l-25.9,19l-2.3,7.4l-6.1,8.5l-8.3,5.3l-9.1,-2.1l-11.9,14.7l-0.5,2.7l-6.8,1.1l-2.3,3.4l-1,12.9l-3.5,12.5l-18.8,35.9l-1.7,4.5l-1,5.4l-0.5,13.2l-1.1,2.9l-7.2,7l-3.8,5.7l-2.5,4.7l-3.9,3.1l-8.1,1.2l-4.9,1.9l-3.1,4.2l-1.6,6l0,0.9l-6,-2.8l1.1,-12.8l0.3,-1.2l0.9,-2.1l1.2,-1.7l1.6,-1.3l1.8,-1l3.1,-1.2l3.8,-1.9l0.8,-0.6l1.5,-1.6l0.5,-1l0.2,-2.4l-1.9,-17.3l0.2,-2.6l0.4,-1.1l1.2,-1.7l2.5,-1.9l0.9,-2l0.5,-2.4l0.2,-1.3l-0.4,-1.8l-1,-2.2l-2.7,-3.5l-2.8,-2.7l-3.6,-2.2l-2.5,-2l-2.7,-3l-0.6,-1.7l-0.6,-2.4l-0.6,-7.4l0.1,-2l2,-11.4l0.6,-2l3.1,-8.7l0.6,-2.4l0,-2.7l-0.4,-2.5l-10.2,-21.8l-1.1,-1.4l-3.2,-1.2l-1.9,-0.3l-1.7,0.1l-9.9,3.1l-2.6,0.2l-1.2,-0.2l-0.8,-1.7l-0.5,-2.9l0.5,-7.1l-0.1,-7l-3.1,-8.4l8,-7.9l0.9,-1.4l1,-2l1.4,-5.9l7.5,-20.2l0.6,-12.2l0.8,-1.3l1.1,-1.5l2.7,0.1l2.4,0.5l4.3,1.5l2.8,-0.5l4,-1.3l12.8,-5.7l2.7,-0.7l3,0.7l2.4,0.2l1.4,-0.9l1.4,-1.4l2,-2.8l1.5,-0.8l1.4,-0.1l5.9,4.3l2,0.5l2.9,0.3l13.2,-0.1l2.7,0.5l5.6,0.3l4.6,0.8l0.9,0.5l7.6,5.6l1,0.5l4.4,1.6l2.7,1.6l1,0.5l2.9,0.7l1.1,0.6l0.6,1l0.5,2.3l0.9,2l0.8,0.7l1.5,0.5l10.4,1.3l3.9,1l6.7,-4.5z"/>
 </g>
</svg>