<svg width="284.70001" height="308.20001" xmlns="http://www.w3.org/2000/svg" viewbox="0 0 1000 549" version="1.2" class="img-fluid mapa">

 <g>
  <title>Layer 1</title>
  <path name="San Salvador" id="san-salvador" d="m148.2,36.2l-0.2,4.1l-1.9,5.1l-1.9,4l-0.5,1.4l0.2,1.9l1.3,7l0.3,4.1l-0.3,2.9l-0.6,2.4l-0.3,2.5l-0.7,2.2l-1,1.7l-2.2,1.9l-0.3,0.6l0.5,3.7l0.8,3.2l4,8.1l8.5,14.1l2.6,3.2l0.3,1l-0.7,1.6l-0.8,0.8l-1.1,0.8l-2.9,1.3l-0.8,0.7l1.2,3.3l10.9,17.3l3.8,4.3l2.9,2.4l2.6,0.1l2.3,0.7l0.8,0.6l5.2,7.7l1.7,1.7l1.6,1.1l1,0.4l0.8,1.2l0.3,1.8l-0.7,9.2l0.7,2l7.1,13.7l2,2.5l0.8,2.3l0.9,2.1l0.3,12.8l-14.9,14.1l-12.4,15.8l-2.1,1.7l-2.5,-0.3l-6.6,-2.2l-2.6,-0.2l-1.1,0.3l-0.9,0.5l-0.6,1.3l-0.2,2l0.8,3.7l1.2,3.4l3.2,5.6l0.8,2.1l-0.3,2.9l-0.9,4.6l-3.5,10.5l-2.1,4.6l-3,3.3l-1.2,0.8l-0.9,3.5l-3,-1.3l-2.6,-0.5l-2.4,0.3l-4.3,1.4l-2.4,0.6l-2.5,-0.1l-0.9,-0.5l-0.6,-0.9l-2.3,-5l-6.6,-10.7l-0.3,-1.6l0.2,-2l0.9,-3.6l2.6,-6.7l0.2,-1.4l-0.8,-17.5l0.3,-4l0.6,-2.4l1.5,-1.5l0.2,-1l-0.5,-1l-3.1,-1.5l-0.9,-1l-0.1,-1.3l1,-2.3l1.3,-2.5l0.2,-1.4l-0.4,-1.6l-2.8,-3.7l-2.5,-2l-5.9,-3.2l-0.9,-0.7l-0.8,-1.2l-0.6,-1.9l-0.8,-3.3l-0.5,-1.4l-0.7,-1l-1.6,-1.2l-1.3,-1.7l-0.4,-1.1l-0.3,-4l0.4,-4.3l-2.1,-2.7l-2.4,-0.4l-0.7,-0.9l-0.1,-1.7l1.8,-5.3l2.8,-5.3l0.7,-2.9l0.5,-6.8l0.7,-3.9l1.4,-3.2l0.8,-3.2l0.8,-7.5l0.5,-2l0.8,-2l1.3,-1.6l1.7,-1.2l2.1,-0.8l0.9,-0.6l0.4,-1l0.6,-2.4l2.1,-23.7l0.4,-1.4l0.8,-0.7l1.1,-0.3l3,0.1l0.4,-0.3l0.7,-2.9l1.1,-2.8l-0.2,-0.7l-0.6,-0.9l-2.2,-1.2l-1.5,-1.2l-1.4,-0.8l-2.3,-0.7l-2.5,-0.2l-3.8,0.3l-1.2,0l-3.4,-1.1l-1.9,-0.9l-1.7,-1.1l-1.2,-1.6l-1.2,-2.2l-2.1,-4.9l-1.1,-2.2l-1,-1.5l-2.5,-1.9l-0.3,-1.5l0.1,-2.3l2.2,-9.2l0.5,-14.3l2.9,0.4l1.7,-0.8l5.4,-3.9l3.1,-1.1l8.6,3.8l5.7,0l2.6,-5.3l5.8,4.7l4.7,1.1l11.4,-5.2z"/>
 </g>
</svg>