<svg width="233" height="325" xmlns="http://www.w3.org/2000/svg" version="1.2" viewbox="0 0 1000 549">

 <g>
  <title>Layer 1</title>
  <path name="San Miguel" id="san-miguel" d="m221,161.3l-2.7,3.7l-0.8,5.3l0.2,12.9l1.6,6.1l0,1.4l-0.4,1.4l-1.6,1.9l-2.2,1.8l-1.8,1l-0.8,0.6l-0.6,1.7l-0.4,2.8l0.2,10.8l1.2,7.5l0.9,2.1l3.9,6.2l0.8,2.1l0.2,1l-5.3,30.5l0.1,1.8l0.7,2.4l-0.3,2.6l-5.4,17.7l-1,1l-1.9,0.6l-1.4,0l-1.3,-0.3l-4.3,-1.5l-3.6,-2.2l-3.4,-2.5l-0.8,-0.4l-1.1,4.2l-0.6,3.3l-2.2,33.2l-2.9,-0.5l-2.8,0l-3,1.2l-25.3,-29.5l-1.1,-0.4l-2.4,-0.3l-11.2,1.7l-1,-0.2l-0.8,-0.8l-0.1,-2.1l0.7,-2.8l3.1,-5.6l-0.3,-1.2l-0.9,-1.3l-2.7,-1.5l-1.6,-1.3l-1,-1.5l-0.1,-6.3l-0.1,-1.2l-0.4,-1.3l-0.7,-1.3l-1.3,-1.5l-1.8,-0.2l-1.3,0.2l-3.9,2l-2,0.9l-2.4,0.4l-2.2,-0.6l-3.3,-2.5l-1,-0.4l-2.3,0l-1.2,-0.8l-1.7,-1.7l-3.6,-4.3l-2.1,-1.8l-1.9,-1l-8.1,-1l-2.2,-0.5l-3.1,-1.4l-1.6,-1.2l-2.9,-3.7l-4.1,-6.7l-2.3,-4.5l-2.2,-7.6l-0.6,-3.3l-0.2,-2.5l0.1,-2.7l-0.3,-1.3l-0.6,-1.1l-1.7,-0.6l-1.9,0.7l-0.7,0l-0.6,-0.5l-0.5,-1.3l-1.3,-7.9l-0.1,-2.7l-0.7,-5.7l0.1,-2.5l0.3,-1.1l0.7,-0.8l1.3,0l1.7,1.6l0.8,0.1l0.6,-0.7l0.4,-1.1l0.1,-2.6l0,-2.6l0.5,-2.4l1.2,-1.8l2.2,-2l0.5,-1.2l0.2,-1l-0.2,-1.6l-1.7,-5.6l-0.3,-2.2l0,-1.7l0.9,-3.3l0,-1.1l-0.6,-1.5l-5,-10.6l-0.4,-2.4l-0.1,-2.5l0.2,-1.3l0.8,-2l0.6,-0.8l1,-0.5l2.2,-0.7l1,-0.5l1.2,-1.6l0.4,-1.1l0.2,-1.1l-0.2,-1.6l-0.6,-1.7l-1.1,-3l-0.8,-3.6l0.2,-2.5l2,-5.5l0,-1.2l-1.4,-1.1l-2.5,-0.8l-10.1,-1.2l-3.2,-1.1l-3.5,-2.6l-2.9,-2.7l-3.4,-5.4l-2.5,-3.2l-5,-0.3l-16.8,1.9l-4.7,-7.4l-12.7,-12.8l-1.1,-10l-0.1,-0.1l3.8,-7.4l3.9,-5.9l-0.9,-5.9l4.4,-2.8l2.9,-4.3l0.6,-5l-2.5,-5.3l2.5,-2.3l11,-0.6l7.7,-4.7l7.5,-3.2l16.6,-3.7l4,0.2l6.5,2.6l3,0.4l0.5,-1.3l0,-2.5l0.3,-2.6l1.3,-1.5l2.7,-0.2l3.3,0.6l3.3,0.9l2.6,1.2l2.9,-5.4l4.4,-1.6l5,-0.4l4.5,-1.5l3.3,-3.2l1.4,-2.4l2.2,3.1l4.9,11.5l0.7,3.4l0.1,1.4l0.7,1.8l1.6,3.2l1.3,3.6l0.1,2.5l-0.3,1.2l-0.8,2l-1.4,1.6l-1.6,1.3l-1.7,2.4l-0.5,1.5l-0.4,2.4l0.2,4.1l0.6,2.2l1.5,1.6l2.4,2.1l15.5,10.7l1,1l1.1,1.7l0.7,2.5l0,1.6l-0.3,1.2l-0.7,0.8l-1.7,1.3l-3.2,1.2l-1.9,1l-13.5,9.8l-1.2,1.7l0,1.1l0.7,10.7l1.2,1.9l2.2,2.5l5.2,4.7l1.4,2.1l0.7,2.6l1.5,1.5l4,2.9l1.5,2l0.8,1.7l0.2,1.2l0.7,2.2l1.6,1.6l2.9,1.9l1,0.9l0.6,1.1l-0.1,1.1l-0.4,1l-2.4,3.3l-0.5,0.9l0,0.8l0.7,0.5l2.3,-0.7l3.3,-2l2.1,-0.8l2.3,-0.5l16,-1.3l1.5,0.5l1.5,1l1.8,2.3l1.5,2.8l0.7,2.3l1.1,7.6l1.1,1.8l0.9,0.6l6.1,3.7l1.4,1.3l0.9,1.1l1.1,2l0.6,0.7l2,0.3l3.1,-0.3l16.1,-5l4.3,-0.3l8.8,1.5z"/>
 </g>
</svg>