<svg width="236.79999" height="286.29998779296875" xmlns="http://www.w3.org/2000/svg" viewbox="0 0 1000 549" version="1.2">

  <path name="Santa Ana" id="santa-ana" d="m176.7,14.8l15.8,14.7l2.7,3.1l0.5,0.8l1.4,3.2l1.8,3.1l0.9,0.9l1.5,1.2l6.1
  ,3.2l0.9,0.8l2,2.6l7.5,4.8l-5.3,15.4l-1.6,8.6l-3.6,4.1l-15.4,6.2l0,8.6l0.4,4.7l-0.2,1.6l-0.8,2l-8,11.1l-1.4,1.4l
  -1.8,1.2l-2.1,0.7l-1.3,0.2l-4.3,0.3l-2.2,0.5l-1,0.4l-1.6,1.3l-4.8,8.8l-1,1.4l-0.8,0.8l-2,0.9l-7.7,-0.5l
  -7.9,27.3l1.2,9.1l4.6,4.3l6.2,1.1l6.1,0l4.9,-1.3l-4.5,23.5l-0.7,6.2l0.1,1.3l-0.6,8.2l-0.5,1.3l-0.9,1.1l-2.1,1l
  -4,0.2l-0.9,0.4l-3.3,5.3l-1.4,0.9l-1.1,0.2l-2.1,-0.4l-1,0.2l-0.9,0.6l-0.7,0.8l-0.5,2.4l-0.5,11.4l0.3,7.6l
  -0.7,9.1l-7.3,19.8l-1.9,11.8l-19.6,-3.7l-5.3,-1.8l-1.2,-1.7l-2.5,-6.3l-5.4,-5.1l-8.8,-6.5l-3.9,-2.4l-2.8,
  -1.2l-1.2,0.2l-1.5,1.4l-1.1,1.8l-1.3,3l-0.5,2.4l0,3.8l-0.3,1l-0.9,1l-1.5,0.7l-3,0.7l-1.9,-0.4l-1.3,-0.5l-1.6,
  -1.5l-1,-2.3l-1,-1.4l-1.9,-2l-2.6,-0.4l-1.3,-0.9l-0.5,-0.9l0.1,-1.1l1.2,-1.7l1.6,-1.3l1.2,-1.7l0.4,-2.4l-0.4,
  -2.2l-1.9,-3l-2.5,-2.3l-2.2,-2.7l-1.3,-3l-1.2,-1.7l-6.7,-6.6l-2.4,-1.7l-1.9,-1l-2.6,0.2l-2.2,0.6l-3.7,0.1l-9.6,
  -2.4l8.2,-28.4l1.2,-7.7l-1.3,-2.7l-1.5,-1.6l-1.6,-1.3l-1.5,-1.4l-1,-2l-0.9,-3.4l-1.2,-1.8l-1.5,-1.3l-7.5,-4.8l
  -3.4,-1.4l-2.7,-6.2l-0.4,-3.3l1.2,-3.4l17.6,-31.3l8.2,-9.1l10.4,-8l10.9,-5l44.2,-10.6l2.7,-2.7l-0.1,-6.6l-1.3,
  -1.8l-5.2,-2.6l-1.8,-1.8l-0.8,-2.8l-0.8,-6.5l-0.5,-2l-2.4,-4.5l-1.2,-1.6l-2.4,-2.3l-2.8,-1.3l-8.6,-1.1l-2.6,
  -6.1l2.5,-3.5l4.1,-3l2.6,-4.2l-1.2,-4.9l-3,-4.3l-1.8,-4.8l2.7,-6.7l5.9,-4.4l6,0.5l4.5,4.6l1.2,7.9l5.6,-4l10.2,
  -12.4l7.3,-3.1l6.6,0.8l4.6,2.5l4.7,1.7l6.5,-1.3l9.3,-9.8l4.2,-1.6l0.6,8.2l2.1,-3.2l0.4,-1l12,8.7l6.3,1.1z"/>
</svg>