<svg width="233" height="226.29999" xmlns="http://www.w3.org/2000/svg" viewbox="0 0 1000 549" version="1.2">

 <g>
  <title>Layer 1</title>
  <path name="Sonsonate" id="sonsonate" d="m209.2,80.3l4.7,1.5l1,0.5l1.6,1.3l1,1.9l0.2,1.2l-0.6,1.6l-1.1,1.6l-3,2.7l-2.6,1.8l-6.1,3.6l-2.2,2.1l-4.9,6l-1.6,1.3l-1.7,0.7l-2.8,0.3l-1,0.2l-1.7,1l-0.8,0.8l-0.9,1.6l-0.9,2.3l-1.2,5l-0.7,4.9l0.6,9.4l-0.1,1.4l-1.1,2.1l-2.1,2.7l-9,9.1l-1.6,1.4l-1,1.3l-1,2.1l-0.7,3.6l-0.6,5.1l-1.1,1.7l-1.8,2.1l-10.4,9.2l-2.2,3.5l-5.5,12.7l-2.9,-0.5l-26.1,-8.7l-13.8,2.9l-39.1,0.5l-6.3,-4.4l-4.1,-15.6l-1.6,-9.7l-5.1,-4.3l-8.5,-5.3l-33.4,-19l-0.9,-0.4l0.9,-1.6l6.6,-10.4l3,-3.7l2.2,-1.6l2.6,-1.1l2.4,-0.4l3.1,0.2l2.1,0.8l2.5,1.9l5.4,6.2l3,2.9l0.8,0.6l2.6,0.5l12.4,0.7l3.4,-0.4l2.1,-0.8l2.3,-9.5l0.8,-2l5.3,-9.6l0.3,-1l0.2,-4l0.7,-1.8l1.2,-2.3l3.1,-3.7l1.2,-2l0.6,-1.7l-0.4,-2.4l-3.5,-11l0.2,-1.7l0.8,-2.3l8.4,-12.8l0.2,-1.5l-1.3,-3l-0.8,-1.9l-0.7,-2.5l-0.9,-7.9l0.1,-1.8l0.4,-2.7l0.9,-1.3l1.1,-0.7l5,-0.8l9.1,-2.5l7.3,-3.1l9.6,2.4l3.7,-0.1l2.2,-0.6l2.6,-0.2l1.9,1l2.4,1.7l6.7,6.6l1.2,1.7l1.3,3l2.2,2.7l2.5,2.3l1.9,3l0.4,2.2l-0.4,2.4l-1.2,1.7l-1.6,1.3l-1.2,1.7l-0.1,1.1l0.5,0.9l1.3,0.9l2.6,0.4l1.9,2l1,1.4l1,2.3l1.6,1.5l1.3,0.5l1.9,0.4l3,-0.7l1.5,-0.7l0.9,-1l0.3,-1l0,-3.8l0.5,-2.4l1.3,-3l1.1,-1.8l1.5,-1.4l1.2,-0.2l2.8,1.2l3.9,2.4l8.8,6.5l5.4,5.1l2.5,6.3l1.2,1.7l5.3,1.8l19.6,3.7z"/>
 </g>
</svg>