<svg width="301" height="246.29999" xmlns="http://www.w3.org/2000/svg" version="1.2" viewbox="0 0 1000 549">

 <g>
  <title>Layer 1</title>
  <path name="Usulután" id="usulutan" d="m295.2,229.7l-3.9,1.5l-35.6,3l-38.1,-5.8l-10,3.2l-5.2,-1.8l-6,-1.3l0,-2.7l9.3,-0.6l0.6,-6.5l-4.9,-8.1l-7.6,-5.3l1.7,3.3l4.9,6.9l1.9,4.3l-14.9,-0.5l-7.3,0.7l-6.2,2.7l4,1.7l3.2,-0.5l3.9,-1.1l5.8,-0.1l0,3.1l-9.6,4l-10.6,-0.3l-8.3,-5.1l-2.5,-10.4l4.1,1.8l1.5,1.1l5.7,-5.8l0,-2.6l-7.1,-3.2l-7.7,-11l-5.2,-3.2l1.4,6.1l2.3,5l1.2,4.5l-1.8,4.4l-6,-3.4l-17.4,-4.4l-7.6,-4.1l-6.8,-12.2l-3.2,-2l-4.8,-0.4l-13.6,-2.7l-6,0l-16.7,3.1l-23.3,0.7l-5.1,2.2l2.8,2.3l3,1.6l3,0.5l2.7,-1.2l11.6,2.7l33.1,-3.6l3.7,0.6l5.3,2.9l2.9,2.7l5.1,6.3l3.5,2.6l0,3.2l-7.7,-1.3l-5.6,-1.1l-12.3,-3.7l0,2.9l33.8,7l17.6,5.7l8,7.8l-2.9,5.1l-7.4,-1.2l-8.2,-4.4l-5.4,-4.1l-6.1,-3.1l-106.4,-19.8l-13,-6.1l0,-0.9l1.6,-6l3.1,-4.2l4.9,-1.9l8.1,-1.2l3.9,-3.1l2.5,-4.7l3.8,-5.7l7.2,-7l1.1,-2.9l0.5,-13.2l1,-5.4l1.7,-4.5l18.8,-35.9l3.5,-12.5l1,-12.9l2.3,-3.4l6.8,-1.1l0.5,-2.7l11.9,-14.7l9.1,2.1l8.3,-5.3l6.1,-8.5l2.3,-7.4l25.9,-19l16.8,-1.9l5,0.3l2.5,3.2l3.4,5.4l2.9,2.7l3.5,2.6l3.2,1.1l10.1,1.2l2.5,0.8l1.4,1.1l0,1.2l-2,5.5l-0.2,2.5l0.8,3.6l1.1,3l0.6,1.7l0.2,1.6l-0.2,1.1l-0.4,1.1l-1.2,1.6l-1,0.5l-2.2,0.7l-1,0.5l-0.6,0.8l-0.8,2l-0.2,1.3l0.1,2.5l0.4,2.4l5,10.6l0.6,1.5l0,1.1l-0.9,3.3l0,1.7l0.3,2.2l1.7,5.6l0.2,1.6l-0.2,1l-0.5,1.2l-2.2,2l-1.2,1.8l-0.5,2.4l0,2.6l-0.1,2.6l-0.4,1.1l-0.6,0.7l-0.8,-0.1l-1.7,-1.6l-1.3,0l-0.7,0.8l-0.3,1.1l-0.1,2.5l0.7,5.7l0.1,2.7l1.3,7.9l0.5,1.3l0.6,0.5l0.7,0l1.9,-0.7l1.7,0.6l0.6,1.1l0.3,1.3l-0.1,2.7l0.2,2.5l0.6,3.3l2.2,7.6l2.3,4.5l4.1,6.7l2.9,3.7l1.6,1.2l3.1,1.4l2.2,0.5l8.1,1l1.9,1l2.1,1.8l3.6,4.3l1.7,1.7l1.2,0.8l2.3,0l1,0.4l3.3,2.5l2.2,0.6l2.4,-0.4l2,-0.9l3.9,-2l1.3,-0.2l1.8,0.2l1.3,1.5l0.7,1.3l0.4,1.3l0.1,1.2l0.1,6.3l1,1.5l1.6,1.3l2.7,1.5l0.9,1.3l0.3,1.2l-3.1,5.6l-0.7,2.8l0.1,2.1l0.8,0.8l1,0.2l11.2,-1.7l2.4,0.3l1.1,0.4l25.3,29.5z"/>
 </g>
</svg>